<?xml version="1.0" encoding="utf-8"?>
<!-- Generator: Adobe Illustrator 21.1.0, SVG Export Plug-In . SVG Version: 6.00 Build 0)  -->
<svg version="1.1" id="Layer_1" xmlns="http://www.w3.org/2000/svg" xmlns:xlink="http://www.w3.org/1999/xlink" x="0px" y="0px"
	 viewBox="0 0 890 500" enable-background="new 0 0 890 500" xml:space="preserve">
<circle fill="#CCCCCC" cx="530.6" cy="187.1" r="9.1"/>
<circle fill="#CCCCCC" cx="507.8" cy="187.1" r="9.1"/>
<path fill="#707070" d="M567.9,222.7V254c0,5.5-2,10.2-6.1,13.9c-2.4,2.2-5.2,3.8-8.3,4.7v16.2c7.5-1.2,14-4.5,19.4-9.7
	c7.1-6.9,10.7-15.2,10.7-25.1v-31.2H567.9z"/>
<path fill="#707070" d="M575.8,253.8L575.8,253.8c4.3,0,7.8-3.5,7.8-7.8v-27.4c0-4.3-3.5-7.8-7.8-7.8l0,0c-4.3,0-7.8,3.5-7.8,7.8
	V246C568,250.3,571.5,253.8,575.8,253.8z"/>
<path fill="#707070" d="M566.6,277L566.6,277c-1.2-4.1-5.5-6.5-9.6-5.3l-10.5,3.1c-4.1,1.2-6.5,5.5-5.3,9.6v0
	c1.2,4.1,5.5,6.5,9.6,5.3l10.5-3.1C565.4,285.5,567.8,281.1,566.6,277z"/>
<path fill="#E2CF47" d="M451.9,252.4v15.5h-44.9c-10.3,0-18.6-7.9-18.6-17.6V225c0-4-3.9-7.2-8.6-7.3c-0.5,0.1-2.7,0.3-4.6,1.6
	c-1,0.6-3.9,2.6-3.9,9.3v21.5h-15.5v-21.5c0-18.9,14.1-26.2,23.6-26.5h0.2c13.4,0,24.4,10.2,24.4,22.8v25.3c0,1,1.3,2.1,3.1,2.1
	H451.9z"/>
<path fill="#707070" d="M406.3,252.4c-0.5,0-0.9-0.1-1.3-0.2h-16.5c0.9,8.8,8.5,15.7,17.7,15.7h43v-15.5H406.3z"/>
<g>
	<path fill="#AFAFAF" d="M323.4,300c1.8,0,3.4,0.6,4.7,1.9c1.3,1.3,2,2.9,2,4.7v2.4c0,1.8-0.7,3.4-2,4.7c-1.3,1.3-2.9,1.9-4.7,1.9
		h-7.8c-0.6,0-1.1,0.2-1.5,0.6c-0.4,0.4-0.6,0.9-0.6,1.5v4.2c0,0.3-0.1,0.4-0.4,0.4h-1.5c-0.3,0-0.4-0.1-0.4-0.4v-4.2
		c0-1.2,0.4-2.3,1.3-3.1c0.9-0.9,1.9-1.3,3.1-1.3h1.1v-6.7c0-1.8,0.7-3.4,2-4.7C320,300.6,321.6,300,323.4,300z M327.7,306.6
		c0-1.2-0.4-2.2-1.3-3.1c-0.8-0.8-1.9-1.3-3-1.3c-1.2,0-2.2,0.4-3.1,1.3c-0.9,0.9-1.3,1.9-1.3,3.1v6.7h4.4c1.2,0,2.2-0.4,3-1.3
		c0.9-0.9,1.3-1.9,1.3-3.1V306.6z"/>
	<path fill="#AFAFAF" d="M352.8,315.6h-1.1c-1.4,0-2.5-0.4-3.3-1.2c-0.1-0.1-0.2-0.3-0.4-0.5c-1,1.1-2.4,1.7-4.2,1.7h-9.3
		c-0.3,0-0.4-0.1-0.4-0.4v-1.5c0-0.3,0.1-0.4,0.4-0.4h9.3c1.1,0,1.8-0.2,2.3-0.7c0.5-0.5,0.7-1.3,0.7-2.3v-17c0-0.3,0.1-0.4,0.4-0.4
		h1.5c0.3,0,0.4,0.1,0.4,0.4v18.3c0,0.5,0.1,0.8,0.4,1.1c0.4,0.4,1,0.6,1.7,0.6h1.4L352.8,315.6z M340.8,295.4
		c0.3,0,0.4,0.1,0.4,0.4v14.5c0,0.3-0.1,0.4-0.4,0.4h-1.5c-0.3,0-0.4-0.1-0.4-0.4v-14.5c0-0.3,0.1-0.4,0.4-0.4H340.8z"/>
	<path fill="#AFAFAF" d="M370.2,313.3c0.3,0,0.4,0.1,0.4,0.4v1.5c0,0.3-0.1,0.4-0.4,0.4H352v-2.3h6.2c-0.6-1-0.9-2.1-0.9-3.3v-3.4
		c0-1.8,0.6-3.4,1.9-4.7c1.3-1.3,2.9-2,4.7-2c1.4,0,2.7,0.4,3.9,1.2c1.1,0.8,1.8,1.8,2.1,3l0.2,0.7c0,0.1,0,0.1,0,0.2
		c0,0.2-0.1,0.3-0.3,0.3l-1.4,0.3c-0.1,0-0.1,0-0.1,0c-0.2,0-0.3-0.1-0.4-0.3l-0.2-0.7c-0.1-0.7-0.6-1.2-1.3-1.7
		c-0.7-0.5-1.5-0.7-2.4-0.7c-1.2,0-2.2,0.4-3.1,1.3c-0.8,0.9-1.3,1.9-1.3,3.1v3.4c0,0.9,0.2,1.6,0.7,2.2c0.5,0.7,1.2,1,2,1H370.2z"
		/>
	<path fill="#AFAFAF" d="M393.3,315.6h-1c-1.4,0-2.5-0.4-3.3-1.2c-0.1-0.1-0.2-0.3-0.4-0.5c-1,1.1-2.4,1.7-4.2,1.7H375
		c-0.3,0-0.4-0.1-0.4-0.4v-1.5c0-0.3,0.1-0.4,0.4-0.4h9.3c1.1,0,1.8-0.2,2.3-0.7c0.5-0.5,0.7-1.3,0.7-2.3v-17c0-0.3,0.1-0.4,0.4-0.4
		h1.5c0.3,0,0.4,0.1,0.4,0.4v18.3c0,0.5,0.1,0.8,0.4,1.1c0.4,0.4,0.9,0.6,1.7,0.6h1.5V315.6z M383.3,322.2c0.2,0,0.3,0.1,0.3,0.3
		v0.7c0,0.2-0.1,0.3-0.3,0.3h-5.4c-0.2,0-0.3-0.1-0.3-0.3v-0.7c0-0.2,0.1-0.3,0.3-0.3h0.9v-1.8c0-0.7,0.2-1.2,0.7-1.7
		c0.5-0.5,1-0.7,1.7-0.7c1,0,1.8,0.5,2.2,1.4l0.1,0.3c0,0,0,0.1,0,0.1c0,0.1-0.1,0.2-0.2,0.3l-0.6,0.3c-0.1,0-0.1,0-0.1,0
		c-0.1,0-0.2-0.1-0.3-0.2l-0.1-0.3c-0.2-0.5-0.5-0.7-1-0.7c-0.3,0-0.6,0.1-0.8,0.3s-0.3,0.5-0.3,0.8v1.8H383.3z M379.8,310.7
		c-0.3,0-0.4-0.1-0.4-0.4v-14.5c0-0.3,0.1-0.4,0.4-0.4h1.5c0.3,0,0.4,0.1,0.4,0.4v14.5c0,0.3-0.1,0.4-0.4,0.4H379.8z"/>
	<path fill="#AFAFAF" d="M399.8,292.9c0.3,0,0.4,0.1,0.4,0.4v18.3c0,1.2-0.4,2.2-1.1,2.9c-0.7,0.7-1.7,1.1-2.9,1.1h-3.6v-2.3h3.7
		c0,0,0,0,0,0c0.6,0,1-0.1,1.2-0.4c0.3-0.3,0.4-0.7,0.4-1.3v-18.3c0-0.3,0.1-0.4,0.4-0.4H399.8z"/>
</g>
<line fill="none" x1="369.5" y1="250.1" x2="353.9" y2="250.1"/>
<path fill="#EAD557" d="M356.1,246.5c-0.8,10.4-8.2,18.6-17.3,18.6c-9,0-16.5-8.2-17.3-18.6H306c0.9,19,15.3,34.2,32.8,34.2
	s31.9-15.2,32.8-34.2H356.1z"/>
<path fill="#EAD557" d="M313.8,256.5L313.8,256.5c4.3,0,7.8-3.5,7.8-7.8v-9.1c0-4.3-3.5-7.8-7.8-7.8l0,0c-4.3,0-7.8,3.5-7.8,7.8v9.1
	C306,253,309.5,256.5,313.8,256.5z"/>
<path fill="#4CBAE0" d="M519.5,267.7c-8.8,0-17.1-3.4-23.3-9.6l-23.3-23.3l23.3-23.3c6.2-6.2,14.5-9.6,23.3-9.6c0,0,0,0,0,0
	c8.8,0,17.1,3.4,23.3,9.6c12.9,12.9,12.9,33.8,0,46.7h0C536.6,264.2,528.3,267.7,519.5,267.7z M495.1,234.7l12.2,12.2
	c3.2,3.2,7.6,5,12.2,5c4.6,0,9-1.8,12.2-5c6.7-6.7,6.7-17.7,0-24.4c-3.2-3.2-7.6-5-12.2-5c0,0,0,0,0,0c-4.6,0-9,1.8-12.2,5
	L495.1,234.7z"/>
<path fill="#3498DB" d="M448.2,267.7C448.2,267.7,448.2,267.7,448.2,267.7c-8.9,0-17.1-3.4-23.3-9.6c-6.2-6.2-9.6-14.5-9.6-23.3
	c0-8.8,3.4-17.1,9.6-23.3c6.2-6.2,14.5-9.6,23.3-9.6c8.8,0,17.1,3.4,23.3,9.6l23.3,23.3L471.5,258
	C465.3,264.2,457.1,267.7,448.2,267.7z M448.2,252C448.2,252,448.2,252,448.2,252c4.6,0,9-1.8,12.2-5l12.2-12.2l-12.2-12.2
	c-3.2-3.2-7.6-5-12.2-5c-4.6,0-9,1.8-12.2,5c-3.2,3.2-5,7.6-5,12.2c0,4.6,1.8,9,5,12.2C439.2,250.2,443.6,252,448.2,252
	C448.2,252,448.2,252,448.2,252z"/>
</svg>
