<svg xmlns="http://www.w3.org/2000/svg" width="17.994" height="18" viewBox="0 0 17.994 18"><g transform="translate(0 0)"><path d="M.477,357.516a.527.527,0,0,0,.506.672.492.492,0,0,0,.144-.021l4.915-1.4L1.88,352.6Zm0,0" transform="translate(-0.441 -340.206)" fill="#5e6c84"/><path d="M.543,357.334a.541.541,0,0,1-.52-.693L1.436,351.7l4.2,4.2-4.95,1.41a.531.531,0,0,1-.148.021Zm.907-5.572-1.4,4.887a.507.507,0,0,0,.489.647.489.489,0,0,0,.141-.021l4.887-1.4Zm0,0" transform="translate(0 -339.335)" fill="#5e6c84"/><path d="M344.918,3.2,342.685.964a1.587,1.587,0,0,0-2.239,0l-1.118,1.118L343.8,6.547l1.118-1.118a1.587,1.587,0,0,0,0-2.232Zm0,0" transform="translate(-327.398 -0.483)" fill="#5e6c84"/><path d="M343.223,6.089,338.73,1.6,339.858.467a1.6,1.6,0,0,1,2.257,0L344.348,2.7a1.6,1.6,0,0,1,0,2.257ZM338.779,1.6l4.444,4.444,1.1-1.1a1.562,1.562,0,0,0,0-2.208L342.094.492a1.566,1.566,0,0,0-2.211,0Zm0,0" transform="translate(-326.821)" fill="#5e6c84"/><path d="M57.8,75.746,66.96,66.59l4.47,4.47-9.155,9.156Zm0,0" transform="translate(-55.772 -64.249)" fill="#5e6c84"/><path d="M61.528,79.574l-4.5-4.5L66.215,65.9l4.493,4.493Zm-4.444-4.5,4.444,4.444,9.13-9.13-4.444-4.444Zm0,0" transform="translate(-55.027 -63.582)" fill="#5e6c84"/></g></svg>