<svg xmlns="http://www.w3.org/2000/svg" xmlns:xlink="http://www.w3.org/1999/xlink" width="38.4" height="40" viewBox="0 0 38.4 40">
  <defs>
    <clipPath id="clip-path">
      <rect id="Rectangle_52" data-name="Rectangle 52" width="38.4" height="40" transform="translate(171.571 162.617)" fill="#3498db"/>
    </clipPath>
  </defs>
  <g id="icon" transform="translate(-171.571 -162.617)">
    <g id="Group_71" data-name="Group 71" clip-path="url(#clip-path)">
      <path id="Path_123" data-name="Path 123" d="M190.112,162.617c.834.463,3.672,2.345,3.672,5.742,0,3.005-4.848,11.977-2.972,14.308l12.035-15s2.989,3.641,1.2,6.72c-1.863,3.2-6.47,6.955-8.315,9.745-1.141,1.725-.586,2.649-.586,2.649l14.584-7.988a5.87,5.87,0,0,1-1.6,5.974c-2.929,2.638-9.827,3.685-9.827,6.434h10.017s-1.024,3.035-2.959,3.462c-1.707.377-5.36-.62-7.082.93-1.818,1.637-3.862,7.021-9.961,7.021-4.1,0-7.284-2.958-9.26-6.844-2.283-4.491-4.841-6.653-7.478-7.2a5.855,5.855,0,0,1,5.219-3.395c5.2,0,7.43,8.527,11.357,8.527a2.134,2.134,0,0,0,2.333-2.256c0-1.81-2.609-3.31-3.336-3.815a5.321,5.321,0,0,1-2.22-6.329l5.188-18.684" transform="translate(0)" fill="#3498db"/>
    </g>
  </g>
</svg>
